<?xml version="1.0" encoding="utf-8"?>
<?xml-stylesheet type="text/css" href="/project/css/style.css"?>
<!-- Generator: Adobe Illustrator 22.0.0, SVG Export Plug-In . SVG Version: 6.00 Build 0)  -->
<svg version="1.1" xmlns="http://www.w3.org/2000/svg" xmlns:xlink="http://www.w3.org/1999/xlink" x="0px" y="0px"
	 viewBox="0 0 714.5 844.9" style="enable-background:new 0 0 714.5 844.9;" xml:space="preserve">
<g id="Layer_2">
</g>
<g id="svg2" inkscape:version="0.48.3.1 r9886" sodipodi:docname="bookmark_font_awesome.svg" xmlns:cc="http://creativecommons.org/ns#" xmlns:dc="http://purl.org/dc/elements/1.1/" xmlns:inkscape="http://www.inkscape.org/namespaces/inkscape" xmlns:rdf="http://www.w3.org/1999/02/22-rdf-syntax-ns#" xmlns:sodipodi="http://sodipodi.sourceforge.net/DTD/sodipodi-0.dtd" xmlns:svg="http://www.w3.org/2000/svg">
	
		<sodipodi:namedview  bordercolor="#666666" borderopacity="1" gridtolerance="10" guidetolerance="10" id="namedview8" inkscape:current-layer="svg2" inkscape:cx="896" inkscape:cy="896" inkscape:pageopacity="0" inkscape:pageshadow="2" inkscape:window-height="480" inkscape:window-maximized="0" inkscape:window-width="640" inkscape:window-x="0" inkscape:window-y="25" inkscape:zoom="0.13169643" objecttolerance="10" pagecolor="#ffffff" showgrid="false">
		</sodipodi:namedview>
	<g id="g4" transform="matrix(1,0,0,-1,258.16949,1270.2373)">
		<path id="path6" inkscape:connector-curvature="0" d="M391.7,1270.1c8.6,0,16.7-1.7,24.6-5c12.3-4.8,22-12.5,29.3-22.9
			c7.3-10.4,10.9-21.9,10.9-34.6V488.3c0-12.6-3.6-24.2-10.9-34.6c-7.3-10.4-17-18-29.3-22.9c-7.1-3-15.3-4.5-24.6-4.5
			c-17.9,0-33.3,6-46.3,17.9L99.3,680.8l-246.1-236.6c-13.4-12.3-28.8-18.4-46.3-18.4c-8.6,0-16.7,1.7-24.6,5
			c-12.3,4.8-22,12.5-29.3,22.9c-7.3,10.4-10.9,21.9-10.9,34.6v719.3c0,12.6,3.6,24.2,10.9,34.6c7.3,10.4,17,18,29.3,22.9
			c7.8,3.3,16,5,24.6,5H391.7z"/>
	</g>
</g>
</svg>
